<svg id="vector" xmlns="http://www.w3.org/2000/svg" width="14" height="14" viewBox="0 0 14 14"><path fill="#000000" d="M4,0C4.276,0 4.5,0.225 4.5,0.5V1H9.5V0.5C9.5,0.225 9.724,0 10,0C10.276,0 10.5,0.225 10.5,0.5V1H11.5C12.88,1 14,2.12 14,3.5V11.5C14,12.88 12.88,14 11.5,14H2.5C1.12,14 0,12.88 0,11.5V3.5C0,2.12 1.12,1 2.5,1H3.5V0.5C3.5,0.225 3.724,0 4,0ZM3.5,2H2.5C1.671,2 1,2.67 1,3.5V4.5H13V3.5C13,2.67 12.328,2 11.5,2H10.5V2.5C10.5,2.775 10.276,3 10,3C9.724,3 9.5,2.775 9.5,2.5V2H4.5V2.5C4.5,2.775 4.276,3 4,3C3.724,3 3.5,2.775 3.5,2.5V2ZM13,5.5H1V11.5C1,12.33 1.671,13 2.5,13H11.5C12.328,13 13,12.33 13,11.5V5.5ZM3,8C3,7.725 3.224,7.5 3.5,7.5H4.5C4.776,7.5 5,7.725 5,8C5,8.275 4.776,8.5 4.5,8.5H3.5C3.224,8.5 3,8.275 3,8ZM6,8C6,7.725 6.224,7.5 6.5,7.5H7.5C7.776,7.5 8,7.725 8,8C8,8.275 7.776,8.5 7.5,8.5H6.5C6.224,8.5 6,8.275 6,8ZM9,8C9,7.725 9.224,7.5 9.5,7.5H10.5C10.776,7.5 11,7.725 11,8C11,8.275 10.776,8.5 10.5,8.5H9.5C9.224,8.5 9,8.275 9,8ZM3,10.5C3,10.225 3.224,10 3.5,10H4.5C4.776,10 5,10.225 5,10.5C5,10.775 4.776,11 4.5,11H3.5C3.224,11 3,10.775 3,10.5ZM6,10.5C6,10.225 6.224,10 6.5,10H7.5C7.776,10 8,10.225 8,10.5C8,10.775 7.776,11 7.5,11H6.5C6.224,11 6,10.775 6,10.5ZM9,10.5C9,10.225 9.224,10 9.5,10H10.5C10.776,10 11,10.225 11,10.5C11,10.775 10.776,11 10.5,11H9.5C9.224,11 9,10.775 9,10.5Z" fill-rule="evenodd" id="path_0"/></svg>