<svg id="vector" xmlns="http://www.w3.org/2000/svg" width="20" height="20" viewBox="0 0 20 20"><path fill="#000000" d="M4.167,12.292C2.9,12.292 1.875,11.267 1.875,10C1.875,8.733 2.9,7.708 4.167,7.708C5.433,7.708 6.458,8.733 6.458,10C6.458,11.267 5.433,12.292 4.167,12.292ZM4.167,8.958C3.592,8.958 3.125,9.425 3.125,10C3.125,10.575 3.592,11.042 4.167,11.042C4.742,11.042 5.208,10.575 5.208,10C5.208,9.425 4.742,8.958 4.167,8.958Z" id="path_0"/><path fill="#000000" d="M15.833,12.292C14.567,12.292 13.542,11.267 13.542,10C13.542,8.733 14.567,7.708 15.833,7.708C17.1,7.708 18.125,8.733 18.125,10C18.125,11.267 17.1,12.292 15.833,12.292ZM15.833,8.958C15.258,8.958 14.792,9.425 14.792,10C14.792,10.575 15.258,11.042 15.833,11.042C16.408,11.042 16.875,10.575 16.875,10C16.875,9.425 16.408,8.958 15.833,8.958Z" id="path_1"/><path fill="#000000" d="M10,12.292C8.733,12.292 7.708,11.267 7.708,10C7.708,8.733 8.733,7.708 10,7.708C11.267,7.708 12.292,8.733 12.292,10C12.292,11.267 11.267,12.292 10,12.292ZM10,8.958C9.425,8.958 8.958,9.425 8.958,10C8.958,10.575 9.425,11.042 10,11.042C10.575,11.042 11.042,10.575 11.042,10C11.042,9.425 10.575,8.958 10,8.958Z" id="path_2"/></svg>