<svg id="vector" xmlns="http://www.w3.org/2000/svg" width="14" height="14" viewBox="0 0 14 14"><path fill="#292D32" d="M6.084,10.716C5.997,10.716 5.915,10.693 5.839,10.64C5.717,10.558 5.647,10.424 5.647,10.278C5.647,10.191 5.641,10.097 5.629,10.004C5.577,9.59 5.39,9.228 5.075,8.913C4.76,8.598 4.369,8.4 3.949,8.347C3.879,8.342 3.78,8.336 3.687,8.342C3.535,8.353 3.395,8.289 3.307,8.167C3.22,8.05 3.197,7.892 3.243,7.752C3.331,7.513 3.459,7.297 3.611,7.122L4.509,5.991C6.055,4.06 9.187,1.738 11.48,0.817C11.964,0.63 12.483,0.741 12.839,1.091C13.207,1.458 13.318,1.983 13.125,2.462C12.203,4.76 9.887,7.887 7.957,9.432L6.807,10.354C6.592,10.512 6.417,10.611 6.242,10.681C6.195,10.704 6.137,10.716 6.084,10.716ZM4.398,7.548C4.888,7.677 5.326,7.933 5.693,8.301C6.061,8.662 6.306,9.083 6.428,9.549L7.414,8.756C9.246,7.292 11.445,4.323 12.314,2.141C12.402,1.925 12.279,1.773 12.221,1.721C12.18,1.68 12.028,1.552 11.795,1.639C9.625,2.514 6.656,4.713 5.186,6.545L4.398,7.548Z" id="path_0"/><path fill="#292D32" d="M2.38,13.271C1.942,13.271 1.523,13.096 1.207,12.781C0.846,12.419 0.671,11.917 0.729,11.404L0.887,9.969C1.038,8.546 2.205,7.49 3.652,7.461C3.763,7.455 3.908,7.461 4.043,7.472C4.678,7.554 5.244,7.84 5.699,8.295C6.148,8.744 6.417,9.281 6.498,9.882C6.516,10.01 6.528,10.15 6.528,10.273C6.528,11.042 6.23,11.76 5.693,12.302C5.244,12.746 4.667,13.02 4.013,13.102L2.572,13.259C2.508,13.265 2.444,13.271 2.38,13.271ZM3.763,8.342C3.739,8.342 3.71,8.342 3.687,8.342C2.806,8.359 1.872,8.96 1.756,10.068L1.598,11.503C1.569,11.748 1.657,11.988 1.826,12.163C1.995,12.332 2.234,12.419 2.473,12.39L3.908,12.233C4.358,12.174 4.76,11.988 5.063,11.684C5.437,11.311 5.647,10.809 5.647,10.273C5.647,10.185 5.641,10.092 5.629,9.998C5.577,9.584 5.39,9.222 5.075,8.907C4.76,8.592 4.369,8.394 3.949,8.342C3.902,8.342 3.832,8.342 3.763,8.342Z" id="path_1"/><path fill="#292D32" d="M8.307,8.878C8.068,8.878 7.869,8.68 7.869,8.441C7.869,7.157 6.825,6.119 5.548,6.119C5.308,6.119 5.11,5.921 5.11,5.682C5.11,5.442 5.302,5.244 5.542,5.244C7.303,5.244 8.738,6.679 8.738,8.441C8.744,8.686 8.546,8.878 8.307,8.878Z" id="path_2"/></svg>