<svg id="vector" xmlns="http://www.w3.org/2000/svg" width="14" height="14" viewBox="0 0 14 14"><path fill="#000000" d="M7,7.438C5.151,7.438 3.646,5.933 3.646,4.083C3.646,2.234 5.151,0.729 7,0.729C8.849,0.729 10.354,2.234 10.354,4.083C10.354,5.933 8.849,7.438 7,7.438ZM7,1.604C5.635,1.604 4.521,2.718 4.521,4.083C4.521,5.448 5.635,6.563 7,6.563C8.365,6.563 9.479,5.448 9.479,4.083C9.479,2.718 8.365,1.604 7,1.604Z" id="path_0"/><path fill="#000000" d="M1.989,13.271C1.75,13.271 1.552,13.073 1.552,12.833C1.552,10.342 3.996,8.313 7,8.313C7.589,8.313 8.167,8.388 8.727,8.546C8.96,8.61 9.094,8.849 9.03,9.083C8.966,9.316 8.727,9.45 8.493,9.386C8.015,9.252 7.513,9.188 7,9.188C4.48,9.188 2.427,10.821 2.427,12.833C2.427,13.073 2.228,13.271 1.989,13.271Z" id="path_1"/><path fill="#000000" d="M10.5,13.271C9.812,13.271 9.158,13.014 8.651,12.553C8.447,12.378 8.266,12.163 8.126,11.923C7.869,11.503 7.729,11.008 7.729,10.5C7.729,9.771 8.009,9.088 8.511,8.569C9.036,8.027 9.742,7.729 10.5,7.729C11.293,7.729 12.046,8.068 12.559,8.651C13.014,9.158 13.271,9.812 13.271,10.5C13.271,10.722 13.242,10.943 13.183,11.153C13.125,11.416 13.014,11.69 12.863,11.929C12.378,12.758 11.468,13.271 10.5,13.271ZM10.5,8.604C9.981,8.604 9.503,8.808 9.141,9.176C8.797,9.532 8.604,9.998 8.604,10.5C8.604,10.844 8.698,11.183 8.878,11.474C8.972,11.638 9.094,11.783 9.234,11.906C9.584,12.227 10.033,12.402 10.5,12.402C11.159,12.402 11.783,12.052 12.122,11.486C12.221,11.323 12.297,11.136 12.338,10.955C12.378,10.803 12.396,10.658 12.396,10.506C12.396,10.039 12.221,9.59 11.906,9.24C11.556,8.832 11.043,8.604 10.5,8.604Z" id="path_2"/><path fill="#000000" d="M11.375,10.926H9.631C9.391,10.926 9.193,10.727 9.193,10.488C9.193,10.249 9.391,10.051 9.631,10.051H11.375C11.614,10.051 11.812,10.249 11.812,10.488C11.812,10.727 11.614,10.926 11.375,10.926Z" id="path_3"/><path fill="#000000" d="M10.5,11.818C10.261,11.818 10.063,11.62 10.063,11.381V9.637C10.063,9.398 10.261,9.199 10.5,9.199C10.739,9.199 10.938,9.398 10.938,9.637V11.381C10.938,11.626 10.739,11.818 10.5,11.818Z" id="path_4"/></svg>