<svg id="vector" xmlns="http://www.w3.org/2000/svg" width="12" height="12" viewBox="0 0 12 12"><path fill="#FF0000" d="M7.89,11.991H7.814C5.224,11.991 3.976,10.97 3.76,8.683C3.737,8.444 3.912,8.228 4.157,8.205C4.39,8.182 4.612,8.362 4.635,8.602C4.804,10.433 5.668,11.116 7.82,11.116H7.896C10.27,11.116 11.11,10.276 11.11,7.902V4.098C11.11,1.724 10.27,0.884 7.896,0.884H7.82C5.656,0.884 4.793,1.578 4.635,3.445C4.606,3.684 4.402,3.865 4.157,3.842C3.912,3.824 3.737,3.608 3.754,3.369C3.953,1.047 5.207,0.009 7.814,0.009H7.89C10.754,0.009 11.979,1.234 11.979,4.098V7.902C11.979,10.766 10.754,11.991 7.89,11.991Z" fill-opacity="0.74" id="path_0"/><path fill="#FF0000" d="M7.75,6.438H1.112C0.872,6.438 0.674,6.239 0.674,6C0.674,5.761 0.872,5.563 1.112,5.563H7.75C7.989,5.563 8.187,5.761 8.187,6C8.187,6.239 7.989,6.438 7.75,6.438Z" fill-opacity="0.74" id="path_1"/><path fill="#FF0000" d="M2.413,8.392C2.302,8.392 2.191,8.351 2.104,8.264L0.149,6.309C-0.02,6.14 -0.02,5.86 0.149,5.691L2.104,3.737C2.273,3.568 2.553,3.568 2.722,3.737C2.891,3.906 2.891,4.186 2.722,4.355L1.077,6L2.722,7.645C2.891,7.814 2.891,8.094 2.722,8.264C2.64,8.351 2.524,8.392 2.413,8.392Z" fill-opacity="0.74" id="path_2"/></svg>