<svg id="vector" xmlns="http://www.w3.org/2000/svg" width="24" height="24" viewBox="0 0 24 24"><path fill="#000000" d="M9.16,11.62C9.13,11.62 9.11,11.62 9.08,11.62C9.03,11.61 8.96,11.61 8.9,11.62C6,11.53 3.81,9.25 3.81,6.44C3.81,3.58 6.14,1.25 9,1.25C11.86,1.25 14.19,3.58 14.19,6.44C14.18,9.25 11.98,11.53 9.19,11.62C9.18,11.62 9.17,11.62 9.16,11.62ZM9,2.75C6.97,2.75 5.31,4.41 5.31,6.44C5.31,8.44 6.87,10.05 8.86,10.12C8.92,10.11 9.05,10.11 9.18,10.12C11.14,10.03 12.68,8.42 12.69,6.44C12.69,4.41 11.03,2.75 9,2.75Z" id="path_0"/><path fill="#000000" d="M16.539,11.75C16.509,11.75 16.479,11.75 16.449,11.74C16.039,11.78 15.619,11.49 15.579,11.08C15.539,10.67 15.789,10.3 16.199,10.25C16.319,10.24 16.449,10.24 16.559,10.24C18.019,10.16 19.159,8.96 19.159,7.49C19.159,5.97 17.929,4.74 16.409,4.74C15.999,4.75 15.659,4.41 15.659,4C15.659,3.59 15.999,3.25 16.409,3.25C18.749,3.25 20.659,5.16 20.659,7.5C20.659,9.8 18.859,11.66 16.569,11.75C16.559,11.75 16.549,11.75 16.539,11.75Z" id="path_1"/><path fill="#000000" d="M9.17,22.55C7.21,22.55 5.24,22.05 3.75,21.05C2.36,20.13 1.6,18.87 1.6,17.5C1.6,16.13 2.36,14.86 3.75,13.93C6.75,11.94 11.61,11.94 14.59,13.93C15.97,14.85 16.74,16.11 16.74,17.48C16.74,18.85 15.98,20.12 14.59,21.05C13.09,22.05 11.13,22.55 9.17,22.55ZM4.58,15.19C3.62,15.83 3.1,16.65 3.1,17.51C3.1,18.36 3.63,19.18 4.58,19.81C7.07,21.48 11.27,21.48 13.76,19.81C14.72,19.17 15.24,18.35 15.24,17.49C15.24,16.64 14.71,15.82 13.76,15.19C11.27,13.53 7.07,13.53 4.58,15.19Z" id="path_2"/><path fill="#000000" d="M18.34,20.75C17.99,20.75 17.68,20.51 17.61,20.15C17.53,19.74 17.79,19.35 18.19,19.26C18.82,19.13 19.4,18.88 19.85,18.53C20.42,18.1 20.73,17.56 20.73,16.99C20.73,16.42 20.42,15.88 19.86,15.46C19.42,15.12 18.87,14.88 18.22,14.73C17.82,14.64 17.56,14.24 17.65,13.83C17.74,13.43 18.14,13.17 18.55,13.26C19.41,13.45 20.16,13.79 20.77,14.26C21.7,14.96 22.23,15.95 22.23,16.99C22.23,18.03 21.69,19.02 20.76,19.73C20.14,20.21 19.36,20.56 18.5,20.73C18.44,20.75 18.39,20.75 18.34,20.75Z" id="path_3"/></svg>