<?xml version="1.0" encoding="UTF-8"?>
<svg width="1024px" height="1024px" viewBox="0 0 1024 1024" version="1.1" xmlns="http://www.w3.org/2000/svg" xmlns:xlink="http://www.w3.org/1999/xlink">
    <!-- Generator: Sketch 47.1 (45422) - http://www.bohemiancoding.com/sketch -->
    <title>Logo — 1024x1024</title>
    <desc>Created with Sketch.</desc>
    <defs>
        <polygon id="path-1" points="0 0 1024 0 1024 1024 513.289673 1024 0 1024"></polygon>
    </defs>
    <g id="Page-1" stroke="none" stroke-width="1" fill="none" fill-rule="evenodd">
        <g id="Logo-—-1024x1024">
            <g id="Title" transform="translate(0.000000, -141.000000)"></g>
            <g id="Group-2">
                <mask id="mask-2" fill="white">
                    <use xlink:href="#path-1"></use>
                </mask>
                <use id="Clip-2" fill="#0032E9" xlink:href="#path-1"></use>
                <path d="M509.427136,1024 L509.427136,1024 C229.23047,1024 0,794.770108 0,514.572864 L0,509.427136 C0,229.229892 229.23047,0 509.427136,0 L509.427136,0 C794.76953,0 1024,229.229892 1024,509.427136 L1024,514.572864 C1024,794.770108 794.76953,1024 509.427136,1024" id="Fill-1" mask="url(#mask-2)"></path>
                <polygon id="Fill-4" fill="#FFFFFF" mask="url(#mask-2)" points="510.796414 145.907908 492.82753 182.110681 535.367268 182.182722 560.895228 145.691787"></polygon>
                <path d="M263.47237,282.561222 C263.47237,297.51471 279.511606,309.913343 299.567083,320.485242 C328.383164,334.347835 366.672531,357.320941 365.946983,405.822006 C365.946983,425.151936 358.655485,441.927011 344.067345,456.147232 C329.46634,470.370026 311.976008,477.29875 291.179546,477.29875 C269.667827,477.29875 251.791566,470.370026 237.57649,456.512579 C223.345978,442.289785 216.4224,425.151936 216.4224,405.093885 L216.4224,394.151493 L259.456129,394.151493 L259.456129,405.093885 C259.456129,424.421242 274.412189,435.726408 290.09637,435.726408 C309.055807,435.726408 320.721174,422.965001 320.721174,408.374287 C320.721174,389.412277 305.036993,375.557403 284.981516,365.343132 C256.180872,351.122911 218.617053,332.155755 219.342601,285.844197 C219.342601,265.783574 226.266179,248.643152 240.126199,235.151051 C254.356712,221.658951 271.121495,214.7328 291.179546,214.7328 C313.429676,214.7328 330.935445,222.387071 343.32636,237.343132 C355.732712,252.291473 361.930742,269.797242 361.930742,289.489946 L318.171465,289.489946 C318.171465,270.162589 307.586702,256.305142 291.179546,256.305142 C276.23635,256.305142 263.47237,268.338428 263.47237,282.561222" id="Fill-6" fill="#FFFFFF" mask="url(#mask-2)"></path>
                <polygon id="Fill-8" fill="#FFFFFF" mask="url(#mask-2)" points="444.42449 218.377777 574.619144 218.377777 574.619144 261.043586 487.828712 261.043586 487.828712 319.393576 566.970018 319.393576 566.970018 361.696611 487.828712 361.696611 487.828712 430.983847 577.168852 430.983847 577.168852 473.654802 444.42449 473.654802"></polygon>
                <polygon id="Fill-10" fill="#FFFFFF" mask="url(#mask-2)" points="439.133138 588.126681 439.133138 547.285033 582.45969 547.285033 582.45969 588.126681 533.21764 588.126681 533.21764 761.715264 582.45969 761.715264 582.45969 802.559485 439.133138 802.559485 439.133138 761.715264 488.732816 761.715264 488.732816 588.126681"></polygon>
                <path d="M758.901837,684.038689 L733.37645,589.951614 L726.08238,589.951614 L700.556993,684.038689 L758.901837,684.038689 Z M695.087083,547.285805 L764.371747,547.285805 L805.951807,690.967413 L805.951807,802.557684 L762.920651,802.557684 L762.920651,726.707071 L696.540752,726.707071 L696.540752,802.557684 L653.507023,802.557684 L653.507023,690.967413 L695.087083,547.285805 Z" id="Fill-12" fill="#FFFFFF" mask="url(#mask-2)"></path>
                <path d="M726.037612,430.548776 L700.509652,430.548776 L700.509652,362.859288 L726.037612,362.859288 C744.132567,362.859288 758.857069,378.610364 758.857069,396.705319 C758.857069,414.802846 744.132567,430.548776 726.037612,430.548776 L726.037612,430.548776 Z M700.509652,262.805741 L729.683361,262.805741 C745.768909,262.805741 758.857069,275.893902 758.857069,291.979449 C758.857069,308.064997 745.768909,321.150585 729.683361,321.150585 L700.509652,321.150585 L700.509652,262.805741 Z M776.39114,343.459891 C792.067602,330.716494 802.616346,312.63955 802.616346,291.979449 C802.616346,251.698685 769.961552,219.046464 729.683361,219.046464 L656.750376,219.046464 L656.750376,474.308052 L726.037612,474.308052 C768.327783,474.308052 802.616346,440.022062 802.616346,397.729319 C802.616346,376.518625 792.152507,357.330203 776.39114,343.459891 L776.39114,343.459891 Z" id="Fill-14" fill="#FFFFFF" mask="url(#mask-2)"></path>
                <path d="M288.172125,758.799952 L262.646738,758.799952 L262.646738,691.113037 L288.172125,691.113037 C306.269652,691.113037 320.991582,706.86154 320.991582,724.956494 C320.991582,743.054022 306.269652,758.799952 288.172125,758.799952 L288.172125,758.799952 Z M262.646738,591.059489 L291.817873,591.059489 C307.903421,591.059489 320.991582,604.145077 320.991582,620.230625 C320.991582,636.318746 307.903421,649.401761 291.817873,649.401761 L262.646738,649.401761 L262.646738,591.059489 Z M338.525652,671.71364 C354.202115,658.96767 364.750858,640.893298 364.750858,620.230625 C364.750858,579.949861 332.096064,547.300213 291.817873,547.300213 L218.887461,547.300213 L218.887461,802.559228 L288.172125,802.559228 C330.464868,802.559228 364.750858,768.275811 364.750858,725.980494 C364.750858,704.772374 354.287019,685.581379 338.525652,671.71364 L338.525652,671.71364 Z" id="Fill-16" fill="#FFFFFF" mask="url(#mask-2)"></path>
            </g>
        </g>
        <g id="title" transform="translate(-2929.000000, -1371.000000)"></g>
    </g>
</svg>