<svg id="vector" xmlns="http://www.w3.org/2000/svg" width="14" height="14" viewBox="0 0 14 14"><path fill="#292D32" d="M8.75,13.271H5.25C2.083,13.271 0.729,11.917 0.729,8.75V5.25C0.729,2.082 2.083,0.729 5.25,0.729H8.75C11.917,0.729 13.271,2.082 13.271,5.25V8.75C13.271,11.917 11.917,13.271 8.75,13.271ZM5.25,1.604C2.561,1.604 1.604,2.561 1.604,5.25V8.75C1.604,11.439 2.561,12.396 5.25,12.396H8.75C11.439,12.396 12.396,11.439 12.396,8.75V5.25C12.396,2.561 11.439,1.604 8.75,1.604H5.25Z" id="path_0"/><path fill="#292D32" d="M5.6,9.205C5.489,9.205 5.378,9.164 5.291,9.077L3.838,7.624C3.494,7.28 3.494,6.726 3.838,6.382L5.291,4.929C5.46,4.76 5.74,4.76 5.909,4.929C6.078,5.098 6.078,5.378 5.909,5.548L4.457,7L5.909,8.458C6.078,8.628 6.078,8.908 5.909,9.077C5.822,9.158 5.711,9.205 5.6,9.205Z" id="path_1"/><path fill="#292D32" d="M8.4,9.205C8.289,9.205 8.178,9.164 8.091,9.077C7.922,8.908 7.922,8.628 8.091,8.458L9.543,7L8.091,5.542C7.922,5.373 7.922,5.093 8.091,4.923C8.26,4.754 8.54,4.754 8.709,4.923L10.162,6.376C10.506,6.72 10.506,7.274 10.162,7.618L8.709,9.071C8.627,9.158 8.511,9.205 8.4,9.205Z" id="path_2"/></svg>