<svg id="vector" xmlns="http://www.w3.org/2000/svg" width="14" height="14" viewBox="0 0 14 14"><path fill="#292D32" d="M6.994,1.167C3.774,1.167 1.167,3.78 1.167,7C1.167,10.22 3.774,12.833 6.994,12.833C10.22,12.833 12.833,10.22 12.833,7C12.833,3.78 10.22,1.167 6.994,1.167ZM11.037,4.667H9.316C9.129,3.937 8.861,3.237 8.511,2.59C9.584,2.957 10.477,3.704 11.037,4.667ZM7,2.357C7.484,3.057 7.863,3.832 8.114,4.667H5.886C6.137,3.832 6.516,3.057 7,2.357ZM2.485,8.167C2.392,7.793 2.333,7.402 2.333,7C2.333,6.597 2.392,6.207 2.485,5.833H4.457C4.41,6.218 4.375,6.603 4.375,7C4.375,7.397 4.41,7.782 4.457,8.167H2.485ZM2.963,9.333H4.684C4.871,10.063 5.139,10.762 5.489,11.41C4.416,11.042 3.523,10.302 2.963,9.333ZM4.684,4.667H2.963C3.523,3.698 4.416,2.957 5.489,2.59C5.139,3.237 4.871,3.937 4.684,4.667ZM7,11.643C6.516,10.943 6.137,10.167 5.886,9.333H8.114C7.863,10.167 7.484,10.943 7,11.643ZM8.365,8.167H5.635C5.583,7.782 5.542,7.397 5.542,7C5.542,6.603 5.583,6.212 5.635,5.833H8.365C8.418,6.212 8.458,6.603 8.458,7C8.458,7.397 8.418,7.782 8.365,8.167ZM8.511,11.41C8.861,10.762 9.129,10.063 9.316,9.333H11.037C10.477,10.296 9.584,11.042 8.511,11.41ZM9.543,8.167C9.59,7.782 9.625,7.397 9.625,7C9.625,6.603 9.59,6.218 9.543,5.833H11.515C11.608,6.207 11.667,6.597 11.667,7C11.667,7.402 11.608,7.793 11.515,8.167H9.543Z" id="path_0"/></svg>