<svg id="vector" xmlns="http://www.w3.org/2000/svg" width="14" height="14" viewBox="0 0 14 14"><path fill="#292D32" d="M9.021,13.542H5.521C2.353,13.542 1,12.188 1,9.021V5.521C1,2.353 2.353,1 5.521,1H9.021C12.188,1 13.542,2.353 13.542,5.521V9.021C13.542,12.188 12.188,13.542 9.021,13.542ZM5.521,1.875C2.832,1.875 1.875,2.832 1.875,5.521V9.021C1.875,11.71 2.832,12.667 5.521,12.667H9.021C11.71,12.667 12.667,11.71 12.667,9.021V5.521C12.667,2.832 11.71,1.875 9.021,1.875H5.521Z" id="path_0"/><path fill="#292D32" d="M5.253,7.864H5.736L6.141,8.396L6.247,8.538L6.851,9.341H6.368L5.97,8.808L5.871,8.673L5.253,7.864ZM7,7.182C7,7.565 6.931,7.897 6.792,8.176C6.654,8.455 6.464,8.671 6.223,8.822C5.981,8.974 5.705,9.05 5.395,9.05C5.085,9.05 4.809,8.974 4.568,8.822C4.326,8.671 4.136,8.455 3.998,8.176C3.859,7.897 3.79,7.565 3.79,7.182C3.79,6.798 3.859,6.467 3.998,6.188C4.136,5.908 4.326,5.693 4.568,5.541C4.809,5.39 5.085,5.314 5.395,5.314C5.705,5.314 5.981,5.39 6.223,5.541C6.464,5.693 6.654,5.908 6.792,6.188C6.931,6.467 7,6.798 7,7.182ZM6.574,7.182C6.574,6.867 6.521,6.601 6.416,6.385C6.312,6.168 6.17,6.004 5.992,5.893C5.814,5.781 5.615,5.726 5.395,5.726C5.175,5.726 4.975,5.781 4.797,5.893C4.619,6.004 4.478,6.168 4.372,6.385C4.268,6.601 4.216,6.867 4.216,7.182C4.216,7.497 4.268,7.762 4.372,7.979C4.478,8.196 4.619,8.36 4.797,8.471C4.975,8.582 5.175,8.638 5.395,8.638C5.615,8.638 5.814,8.582 5.992,8.471C6.17,8.36 6.312,8.196 6.416,7.979C6.521,7.762 6.574,7.497 6.574,7.182ZM7.719,9H7.257L8.592,5.364H9.047L10.382,9H9.921L8.834,5.939H8.806L7.719,9ZM7.889,7.58H9.75V7.97H7.889V7.58Z" id="path_1"/></svg>