<svg id="vector" xmlns="http://www.w3.org/2000/svg" width="22" height="22" viewBox="0 0 22 22"><path fill="#000000" d="M8.47,14.28C8.28,14.28 8.09,14.21 7.94,14.06C7.12,13.24 6.67,12.15 6.67,11C6.67,8.61 8.61,6.67 11,6.67C12.15,6.67 13.24,7.12 14.06,7.94C14.2,8.08 14.28,8.27 14.28,8.47C14.28,8.67 14.2,8.86 14.06,9L9,14.06C8.85,14.21 8.66,14.28 8.47,14.28ZM11,8.17C9.44,8.17 8.17,9.44 8.17,11C8.17,11.5 8.3,11.98 8.54,12.4L12.4,8.54C11.98,8.3 11.5,8.17 11,8.17Z" id="path_0"/><path fill="#000000" d="M4.6,17.51C4.43,17.51 4.25,17.45 4.11,17.33C3.04,16.42 2.08,15.3 1.26,14C0.2,12.35 0.2,9.66 1.26,8C3.7,4.18 7.25,1.98 11,1.98C13.2,1.98 15.37,2.74 17.27,4.17C17.6,4.42 17.67,4.89 17.42,5.22C17.17,5.55 16.7,5.62 16.37,5.37C14.73,4.13 12.87,3.48 11,3.48C7.77,3.48 4.68,5.42 2.52,8.81C1.77,9.98 1.77,12.02 2.52,13.19C3.27,14.36 4.13,15.37 5.08,16.19C5.39,16.46 5.43,16.93 5.16,17.25C5.02,17.42 4.81,17.51 4.6,17.51Z" id="path_1"/><path fill="#000000" d="M11,20.02C9.67,20.02 8.37,19.75 7.12,19.22C6.74,19.06 6.56,18.62 6.72,18.24C6.88,17.86 7.32,17.68 7.7,17.84C8.76,18.29 9.87,18.52 10.99,18.52C14.22,18.52 17.31,16.58 19.47,13.19C20.22,12.02 20.22,9.98 19.47,8.81C19.16,8.32 18.82,7.85 18.46,7.41C18.2,7.09 18.25,6.62 18.57,6.35C18.89,6.09 19.36,6.13 19.63,6.46C20.02,6.94 20.4,7.46 20.74,8C21.8,9.65 21.8,12.34 20.74,14C18.3,17.82 14.75,20.02 11,20.02Z" id="path_2"/><path fill="#000000" d="M11.69,15.27C11.34,15.27 11.02,15.02 10.95,14.66C10.87,14.25 11.14,13.86 11.55,13.79C12.65,13.59 13.57,12.67 13.77,11.57C13.85,11.16 14.24,10.9 14.65,10.97C15.06,11.05 15.33,11.44 15.25,11.85C14.93,13.58 13.55,14.95 11.83,15.27C11.78,15.26 11.74,15.27 11.69,15.27Z" id="path_3"/><path fill="#000000" d="M1,21.75C0.81,21.75 0.62,21.68 0.47,21.53C0.18,21.24 0.18,20.76 0.47,20.47L7.94,13C8.23,12.71 8.71,12.71 9,13C9.29,13.29 9.29,13.77 9,14.06L1.53,21.53C1.38,21.68 1.19,21.75 1,21.75Z" id="path_4"/><path fill="#000000" d="M13.53,9.22C13.34,9.22 13.15,9.15 13,9C12.71,8.71 12.71,8.23 13,7.94L20.47,0.47C20.76,0.18 21.24,0.18 21.53,0.47C21.82,0.76 21.82,1.24 21.53,1.53L14.06,9C13.91,9.15 13.72,9.22 13.53,9.22Z" id="path_5"/></svg>