<svg id="vector" xmlns="http://www.w3.org/2000/svg" width="12" height="14" viewBox="0 0 12 14"><path fill="#292D32" d="M5.837,14C5.425,14 5.019,13.909 4.689,13.733L1.437,11.955C0.089,11.096 0,10.939 0,9.592V6.362C0,5.014 0.089,4.858 1.41,4.018L4.696,2.221C5.349,1.862 6.332,1.862 6.986,2.221L10.238,3.998C11.585,4.858 11.675,5.014 11.675,6.362V9.592C11.675,10.939 11.585,11.096 10.265,11.936L6.979,13.733C6.656,13.915 6.243,14 5.837,14ZM5.837,2.93C5.604,2.93 5.37,2.976 5.205,3.067L1.953,4.845C1.031,5.437 1.031,5.437 1.031,6.362V9.592C1.031,10.516 1.031,10.516 1.987,11.128L5.212,12.887C5.542,13.069 6.14,13.069 6.47,12.887L9.722,11.109C10.643,10.516 10.643,10.516 10.643,9.592V6.362C10.643,5.437 10.643,5.437 9.688,4.825L6.463,3.067C6.305,2.976 6.071,2.93 5.837,2.93Z" id="path_0"/><path fill="#292D32" d="M9.619,4.643C9.337,4.643 9.103,4.421 9.103,4.154V2.442C9.103,1.413 8.643,0.977 7.556,0.977H4.119C3.032,0.977 2.572,1.413 2.572,2.442V4.109C2.572,4.376 2.338,4.597 2.056,4.597C1.774,4.597 1.54,4.382 1.54,4.109V2.442C1.54,0.866 2.455,0 4.119,0H7.556C9.22,0 10.135,0.866 10.135,2.442V4.154C10.135,4.421 9.901,4.643 9.619,4.643Z" id="path_1"/><path fill="#292D32" d="M6.958,10.666C6.814,10.666 6.663,10.64 6.512,10.581L5.838,10.334L5.164,10.588C4.799,10.725 4.428,10.692 4.153,10.503C3.878,10.314 3.734,9.989 3.754,9.618L3.796,8.934L3.335,8.407C3.087,8.113 3.005,7.775 3.115,7.462C3.218,7.156 3.5,6.922 3.878,6.831L4.579,6.661L4.971,6.082C5.391,5.457 6.292,5.457 6.711,6.082L7.103,6.661L7.804,6.831C8.182,6.922 8.464,7.156 8.567,7.462C8.67,7.768 8.588,8.113 8.34,8.4L7.88,8.927L7.921,9.611C7.942,9.982 7.797,10.301 7.522,10.497C7.357,10.607 7.165,10.666 6.958,10.666ZM4.133,7.781L4.593,8.309C4.751,8.485 4.841,8.765 4.827,8.993L4.786,9.676L5.46,9.422C5.686,9.338 5.989,9.338 6.216,9.422L6.89,9.676L6.848,8.993C6.835,8.765 6.924,8.491 7.082,8.309L7.543,7.781L6.842,7.612C6.608,7.553 6.36,7.384 6.23,7.195L5.845,6.622L5.453,7.195C5.322,7.391 5.075,7.56 4.841,7.619L4.133,7.781Z" id="path_2"/></svg>