<svg id="vector" xmlns="http://www.w3.org/2000/svg" width="25" height="23" viewBox="0 0 25 23"><defs><clipPath id="clip_path_0"><path d="M0,0h25v22.059h-25z"/></clipPath></defs><g id="g_0"><path fill="#000000" d="M23.28,11.659L21.274,13.664L19.269,11.659L19.163,11.552L19.057,11.659L18.227,12.488L18.121,12.594L18.227,12.7L20.233,14.706L18.227,16.712L18.121,16.818L18.227,16.924L19.057,17.753L19.163,17.859L19.269,17.753L21.274,15.747L23.28,17.753L23.386,17.859L23.492,17.753L24.322,16.924L24.428,16.818L24.322,16.712L22.316,14.706L24.322,12.7L24.428,12.594L24.322,12.488L23.492,11.659L23.386,11.552L23.28,11.659Z" stroke-width="0.3" stroke="#000000" clip-path="url(#clip_path_0)"/><path fill="#000000" d="M13.54,1.221L13.539,1.221C11.22,1.227 8.995,2.097 7.352,3.645C5.707,5.193 4.777,7.295 4.77,9.491V9.492V13.058L2.636,11.048L2.465,10.887L2.293,11.048L1.299,11.984L1.122,12.151L1.285,12.333L5.544,17.079L5.73,17.286L5.916,17.079L10.176,12.333L10.339,12.151L10.161,11.984L9.167,11.048L8.996,10.887L8.825,11.048L6.69,13.058V9.492C6.69,7.79 7.408,6.155 8.691,4.947C9.975,3.739 11.718,3.057 13.54,3.057C15.361,3.057 17.105,3.739 18.388,4.947C19.671,6.155 20.389,7.79 20.389,9.492V9.559V9.809H20.639H22.059H22.309V9.559L22.309,9.492L22.309,9.491C22.302,7.295 21.372,5.193 19.728,3.645C18.084,2.097 15.859,1.227 13.54,1.221Z" stroke-width="0.5" stroke="#000000"/></g></svg>